<?xml version="1.0" encoding="utf-8"?>
<!-- Generator: Adobe Illustrator 27.0.0, SVG Export Plug-In . SVG Version: 6.00 Build 0)  -->
<svg version="1.1" xmlns="http://www.w3.org/2000/svg" xmlns:xlink="http://www.w3.org/1999/xlink" x="0px" y="0px"
	 viewBox="0 0 2200 2200" style="enable-background:new 0 0 2200 2200;" xml:space="preserve">
<style type="text/css">
	.st0{fill:#FFFFFF;}
	.st1{fill:#424242;}
	.st2{fill:#E02F2F;}
</style>
<g id="background">
	<rect class="st0" width="2200" height="2200"/>
</g>
<g id="Objects">
	<path d="M653.28,1717.11c-56.75,83.88-227.4,293.62-227.4,293.62s-170.65-209.74-227.4-293.62
		c-111.77-165.2-96.63-327.99,18.66-443.28c57.64-57.64,133.19-86.47,208.74-86.47s151.1,28.82,208.74,86.47
		C749.91,1389.12,765.05,1551.91,653.28,1717.11z"/>
	<circle class="st0" cx="425.88" cy="1491.05" r="177.65"/>
	<path d="M1100,2022.35c-3.5,0-6.81-1.58-9.02-4.29c-1.71-2.1-171.63-211.1-228.01-294.44c-28.06-41.48-48.9-83.81-61.92-125.82
		c-12.74-41.09-18.08-82.04-15.87-121.71c4.35-78.04,38.19-150.83,97.86-210.5c57.96-57.96,135.01-89.87,216.97-89.87
		s159.01,31.92,216.97,89.87c59.67,59.67,93.51,132.46,97.86,210.5c2.21,39.67-3.13,80.62-15.87,121.71
		c-13.03,42.01-33.86,84.34-61.92,125.82l-9.63-6.52l9.63,6.52c-56.38,83.34-226.3,292.34-228.01,294.44
		C1106.81,2020.78,1103.5,2022.35,1100,2022.35z M1100,1198.99c-75.74,0-146.96,29.5-200.52,83.06
		c-27.78,27.78-49.63,58.52-64.95,91.36c-15.33,32.85-24.12,67.84-26.13,103.99c-2.06,36.89,2.94,75.09,14.86,113.52
		c12.35,39.82,32.19,80.09,58.97,119.67c48.34,71.45,181.79,237.2,217.77,281.66c35.98-44.47,169.43-210.22,217.77-281.66l0,0
		c26.78-39.58,46.62-79.85,58.97-119.67c11.92-38.43,16.92-76.63,14.86-113.52c-2.02-36.15-10.81-71.13-26.13-103.99
		c-15.32-32.84-37.17-63.58-64.95-91.36C1246.96,1228.49,1175.74,1198.99,1100,1198.99z"/>
	<path d="M1100,1680.33c-104.37,0-189.28-84.91-189.28-189.28s84.91-189.28,189.28-189.28s189.28,84.91,189.28,189.28
		S1204.37,1680.33,1100,1680.33z M1100,1325.03c-91.54,0-166.02,74.48-166.02,166.02s74.48,166.02,166.02,166.02
		s166.02-74.48,166.02-166.02S1191.54,1325.03,1100,1325.03z"/>
	<path class="st1" d="M2001.52,1717.11c-56.75,83.88-227.4,293.62-227.4,293.62s-170.65-209.74-227.4-293.62
		c-111.77-165.2-96.63-327.99,18.66-443.28c57.64-57.64,133.19-86.47,208.74-86.47c75.55,0,151.1,28.82,208.74,86.47
		C2098.15,1389.12,2113.29,1551.91,2001.52,1717.11z"/>
	<circle class="st0" cx="1774.12" cy="1491.05" r="177.65"/>
	<path class="st2" d="M653.28,719.03c-56.75,83.88-227.4,293.62-227.4,293.62S255.22,802.9,198.48,719.03
		c-111.77-165.2-96.63-327.99,18.66-443.28c57.64-57.64,133.19-86.47,208.74-86.47s151.1,28.82,208.74,86.47
		C749.91,391.04,765.05,553.83,653.28,719.03z"/>
	<circle class="st0" cx="425.88" cy="492.97" r="177.65"/>
	<path class="st2" d="M1100,1024.27c-3.5,0-6.81-1.58-9.02-4.29c-1.71-2.1-171.63-211.1-228.01-294.44
		c-28.06-41.48-48.9-83.81-61.92-125.81c-12.74-41.09-18.08-82.04-15.87-121.71c4.35-78.04,38.19-150.83,97.86-210.5
		c57.96-57.96,135.01-89.87,216.97-89.87s159.01,31.92,216.97,89.87c59.67,59.67,93.51,132.46,97.86,210.5
		c2.21,39.67-3.13,80.62-15.87,121.71c-13.03,42.01-33.86,84.34-61.92,125.82c-56.38,83.34-226.3,292.34-228.01,294.44
		C1106.81,1022.69,1103.5,1024.27,1100,1024.27z M1100,200.91c-75.74,0-146.96,29.5-200.52,83.06
		c-27.78,27.78-49.63,58.52-64.95,91.36c-15.33,32.85-24.12,67.84-26.13,103.99c-2.06,36.89,2.94,75.09,14.86,113.52
		c12.35,39.82,32.19,80.09,58.97,119.67c48.34,71.45,181.79,237.2,217.77,281.66c35.98-44.47,169.43-210.22,217.77-281.66v0
		c26.78-39.58,46.62-79.85,58.97-119.67c11.92-38.44,16.92-76.63,14.86-113.52c-2.02-36.15-10.81-71.13-26.13-103.99
		c-15.32-32.84-37.17-63.58-64.95-91.36C1246.96,230.41,1175.74,200.91,1100,200.91z"/>
	<path class="st2" d="M1100,682.25c-104.37,0-189.28-84.91-189.28-189.28S995.63,303.69,1100,303.69s189.28,84.91,189.28,189.28
		S1204.37,682.25,1100,682.25z M1100,326.95c-91.54,0-166.02,74.48-166.02,166.02s74.48,166.02,166.02,166.02
		s166.02-74.48,166.02-166.02S1191.54,326.95,1100,326.95z"/>
	<path class="st2" d="M2001.52,719.03c-56.75,83.88-227.4,293.62-227.4,293.62s-170.65-209.74-227.4-293.62
		c-111.77-165.2-96.63-327.99,18.66-443.28c57.64-57.64,133.19-86.47,208.74-86.47c75.55,0,151.1,28.82,208.74,86.47
		C2098.15,391.04,2113.29,553.83,2001.52,719.03z"/>
	<circle class="st0" cx="1774.12" cy="492.97" r="177.65"/>
	<path d="M1774.12,2029.15l-9.02-11.09c-1.71-2.1-171.63-211.1-228.01-294.44c-28.06-41.48-48.9-83.81-61.92-125.82
		c-12.74-41.09-18.08-82.04-15.87-121.71c4.35-78.04,38.19-150.83,97.86-210.5c57.96-57.96,135.01-89.87,216.97-89.87
		c81.96,0,159.01,31.92,216.97,89.87c59.67,59.67,93.51,132.46,97.86,210.5c2.21,39.67-3.13,80.62-15.87,121.71
		c-13.03,42.01-33.86,84.34-61.92,125.82h0c-56.38,83.34-226.3,292.34-228.01,294.44L1774.12,2029.15z M1774.12,1198.99
		c-75.75,0-146.96,29.5-200.52,83.06c-27.78,27.78-49.63,58.52-64.95,91.36c-15.33,32.85-24.12,67.84-26.13,103.99
		c-2.06,36.89,2.94,75.09,14.86,113.52c12.35,39.82,32.19,80.09,58.97,119.67c48.34,71.45,181.79,237.2,217.77,281.66
		c35.98-44.47,169.43-210.22,217.77-281.66c26.78-39.58,46.62-79.85,58.97-119.67c11.92-38.43,16.92-76.63,14.86-113.52
		c-2.02-36.15-10.81-71.13-26.13-103.99c-15.32-32.84-37.17-63.58-64.96-91.36C1921.08,1228.49,1849.87,1198.99,1774.12,1198.99z
		 M2001.52,1717.11L2001.52,1717.11L2001.52,1717.11z"/>
	<path d="M1774.12,1680.33c-104.37,0-189.28-84.91-189.28-189.28s84.91-189.28,189.28-189.28s189.28,84.91,189.28,189.28
		S1878.49,1680.33,1774.12,1680.33z M1774.12,1325.03c-91.54,0-166.02,74.48-166.02,166.02s74.48,166.02,166.02,166.02
		s166.02-74.48,166.02-166.02S1865.67,1325.03,1774.12,1325.03z"/>
	<path d="M1774.12,1031.07l-9.02-11.09c-1.71-2.1-171.63-211.1-228.01-294.44c-28.06-41.48-48.9-83.81-61.92-125.81
		c-12.74-41.09-18.08-82.04-15.87-121.71c4.35-78.04,38.19-150.83,97.86-210.5c57.96-57.96,135.01-89.87,216.97-89.87
		c81.96,0,159.01,31.92,216.97,89.87c59.67,59.67,93.51,132.46,97.86,210.5c2.21,39.67-3.13,80.62-15.87,121.71
		c-13.03,42.01-33.86,84.34-61.92,125.82h0c-56.38,83.34-226.3,292.34-228.01,294.44L1774.12,1031.07z M1774.12,200.91
		c-75.75,0-146.96,29.5-200.52,83.06c-27.78,27.78-49.63,58.52-64.95,91.36c-15.33,32.85-24.12,67.84-26.13,103.99
		c-2.06,36.89,2.94,75.09,14.86,113.52c12.35,39.82,32.19,80.09,58.97,119.67c48.34,71.45,181.79,237.2,217.77,281.66
		c35.98-44.47,169.43-210.22,217.77-281.66l9.63,6.52l-9.63-6.52c26.78-39.58,46.62-79.85,58.97-119.67
		c11.92-38.44,16.92-76.63,14.86-113.52c-2.02-36.15-10.81-71.13-26.13-103.99c-15.32-32.84-37.17-63.58-64.96-91.36
		C1921.08,230.41,1849.87,200.91,1774.12,200.91z"/>
	<path d="M1774.12,682.25c-104.37,0-189.28-84.91-189.28-189.28s84.91-189.28,189.28-189.28s189.28,84.91,189.28,189.28
		S1878.49,682.25,1774.12,682.25z M1774.12,326.95c-91.54,0-166.02,74.48-166.02,166.02s74.48,166.02,166.02,166.02
		s166.02-74.48,166.02-166.02S1865.67,326.95,1774.12,326.95z"/>
</g>
</svg>
